<?xml version="1.0" standalone="no"?>
<!DOCTYPE svg PUBLIC "-//W3C//DTD SVG 20010904//EN"
 "http://www.w3.org/TR/2001/REC-SVG-20010904/DTD/svg10.dtd">
<svg version="1.0" xmlns="http://www.w3.org/2000/svg"
 width="150.000000pt" height="150.000000pt" viewBox="0 0 150.000000 150.000000"
 preserveAspectRatio="xMidYMid meet">

<g transform="translate(0.000000,150.000000) scale(0.100000,-0.100000)"
fill="#000000" stroke="none">
<path d="M780 1326 c0 -2 7 -7 16 -10 8 -3 12 -2 9 4 -6 10 -25 14 -25 6z"/>
<path d="M831 1264 c0 -11 3 -14 6 -6 3 7 2 16 -1 19 -3 4 -6 -2 -5 -13z"/>
<path d="M663 1248 c15 -5 25 -14 21 -19 -3 -5 0 -9 5 -9 6 0 11 4 11 10 0 11
-33 30 -52 29 -7 0 -1 -5 15 -11z"/>
<path d="M766 1175 c-3 -8 -1 -15 4 -15 6 0 10 7 10 15 0 8 -2 15 -4 15 -2 0
-6 -7 -10 -15z"/>
<path d="M921 1024 c0 -11 3 -14 6 -6 3 7 2 16 -1 19 -3 4 -6 -2 -5 -13z"/>
<path d="M620 986 c-53 -8 -68 -13 -52 -18 13 -3 37 -2 55 3 17 5 44 9 59 9
16 0 28 5 28 10 0 6 -3 9 -7 9 -5 -1 -42 -7 -83 -13z"/>
<path d="M448 963 c6 -2 18 -2 25 0 6 3 1 5 -13 5 -14 0 -19 -2 -12 -5z"/>
<path d="M398 953 c6 -2 18 -2 25 0 6 3 1 5 -13 5 -14 0 -19 -2 -12 -5z"/>
<path d="M313 943 c-23 -4 -31 -27 -13 -38 5 -3 7 0 4 8 -4 10 6 18 33 25 37
10 20 13 -24 5z"/>
<path d="M748 942 c-15 -6 -13 -9 8 -19 21 -10 23 -9 15 1 -6 7 -8 16 -4 19 8
8 4 8 -19 -1z"/>
<path d="M430 930 c0 -5 7 -7 15 -4 8 4 15 8 15 10 0 2 -7 4 -15 4 -8 0 -15
-4 -15 -10z"/>
<path d="M689 908 c-10 -18 -9 -20 6 -15 9 4 21 7 26 7 4 0 6 7 3 15 -8 21
-21 19 -35 -7z"/>
<path d="M881 900 c-13 -11 -19 -20 -14 -20 6 0 18 9 28 20 23 25 17 25 -14 0z"/>
<path d="M441 884 c0 -11 3 -14 6 -6 3 7 2 16 -1 19 -3 4 -6 -2 -5 -13z"/>
<path d="M371 854 c0 -11 3 -14 6 -6 3 7 2 16 -1 19 -3 4 -6 -2 -5 -13z"/>
<path d="M717 859 c6 -6 10 -17 9 -23 -2 -6 -1 -7 2 -3 2 4 11 2 19 -4 12 -11
12 -9 2 14 -7 15 -19 27 -28 27 -11 0 -12 -3 -4 -11z"/>
<path d="M790 859 c0 -5 -5 -7 -12 -3 -7 4 -8 3 -4 -5 6 -9 12 -9 24 1 10 7
19 14 21 15 2 2 -3 3 -12 3 -9 0 -17 -5 -17 -11z"/>
<path d="M312 840 c0 -14 2 -19 5 -12 2 6 2 18 0 25 -3 6 -5 1 -5 -13z"/>
<path d="M451 824 c0 -11 3 -14 6 -6 3 7 2 16 -1 19 -3 4 -6 -2 -5 -13z"/>
<path d="M389 800 c-4 -8 -4 -29 -2 -47 5 -29 8 -31 50 -35 24 -2 50 0 56 4 7
4 -11 8 -40 8 l-52 0 -3 43 c-2 23 -6 35 -9 27z"/>
<path d="M727 786 c-3 -8 0 -17 8 -19 7 -3 12 0 11 8 -3 22 -13 27 -19 11z"/>
<path d="M321 753 c-1 -12 4 -25 9 -28 12 -7 12 2 0 30 -8 19 -9 19 -9 -2z"/>
<path d="M598 743 c7 -3 16 -2 19 1 4 3 -2 6 -13 5 -11 0 -14 -3 -6 -6z"/>
<path d="M474 686 c-3 -8 -4 -23 -2 -33 3 -11 6 -6 9 15 6 34 2 42 -7 18z"/>
<path d="M328 668 c5 -5 16 -8 23 -6 8 3 3 7 -10 11 -17 4 -21 3 -13 -5z"/>
<path d="M851 664 c0 -11 3 -14 6 -6 3 7 2 16 -1 19 -3 4 -6 -2 -5 -13z"/>
<path d="M388 653 c7 -3 16 -2 19 1 4 3 -2 6 -13 5 -11 0 -14 -3 -6 -6z"/>
<path d="M497 649 c7 -7 15 -10 18 -7 3 3 -2 9 -12 12 -14 6 -15 5 -6 -5z"/>
<path d="M428 643 c7 -3 16 -2 19 1 4 3 -2 6 -13 5 -11 0 -14 -3 -6 -6z"/>
<path d="M632 570 c0 -14 2 -19 5 -12 2 6 2 18 0 25 -3 6 -5 1 -5 -13z"/>
<path d="M852 490 c0 -14 2 -19 5 -12 2 6 2 18 0 25 -3 6 -5 1 -5 -13z"/>
<path d="M651 404 c0 -11 3 -14 6 -6 3 7 2 16 -1 19 -3 4 -6 -2 -5 -13z"/>
<path d="M742 370 c0 -14 2 -19 5 -12 2 6 2 18 0 25 -3 6 -5 1 -5 -13z"/>
<path d="M743 300 c0 -25 2 -35 4 -22 2 12 2 32 0 45 -2 12 -4 2 -4 -23z"/>
<path d="M633 225 c0 -8 4 -12 9 -9 5 3 6 10 3 15 -9 13 -12 11 -12 -6z"/>
<path d="M745 210 c-3 -5 1 -10 10 -10 9 0 13 5 10 10 -3 6 -8 10 -10 10 -2 0
-7 -4 -10 -10z"/>
<path d="M693 152 c-6 -4 26 -6 70 -4 120 4 135 9 32 10 -49 1 -95 -2 -102 -6z"/>
</g>
</svg>
